<?xml version="1.0" encoding="utf-8"?>
<svg width="25px" height="25px" viewBox="0 0 25 25" version="1.1" xmlns:xlink="http://www.w3.org/1999/xlink" xmlns="http://www.w3.org/2000/svg">
  <defs>
    <path d="M25 0L25 0L25 25L0 25L0 0L25 0Z" id="path_1" />
    <clipPath id="clip_1">
      <use xlink:href="#path_1" />
    </clipPath>
  </defs>
  <g id="Facebook" clip-path="url(#clip_1)">
    <g clip-path="url(#clip_1)">
      <use xlink:href="#path_1" fill="none" stroke="#808080" stroke-width="2" />
    </g>
    <path d="M12.5 0.625C5.94162 0.625 0.625 5.94162 0.625 12.5C0.625001 19.0584 5.94162 24.375 12.5 24.375C19.0584 24.375 24.375 19.0584 24.375 12.5C24.375 5.94162 19.0584 0.625 12.5 0.625L12.5 0.625Z" id="Shape" fill="#8BB7F0" stroke="none" />
    <path d="M24.3075 13.8044C24.336 13.7704 24.3837 13.7377 24.4075 13.7044C24.3837 13.7377 24.3361 13.771 24.3075 13.8044L24.3075 13.8044ZM0.685669 13.7C0.709807 13.7336 0.758082 13.7664 0.785669 13.8C0.758082 13.7668 0.709807 13.7332 0.685669 13.7L0.685669 13.7ZM14.0335 15.7722L17.107 15.7722L17.5895 12.6506L14.0335 12.6506L14.0335 10.9444C14.0335 9.64781 14.4573 8.4975 15.6707 8.4975L17.6201 8.4975L17.6201 5.77281C17.2773 5.72656 16.5532 5.625 15.1845 5.625C12.3263 5.625 10.651 7.13469 10.651 10.5734L10.651 12.6506L7.71289 12.6506L7.71289 15.7722L10.651 15.7722L10.651 24.1875C11.2316 24.2747 11.821 24.3344 12.426 24.3344C12.9726 24.3344 13.5066 24.2847 14.0335 24.2131L14.0335 15.7722L14.0335 15.7722Z" id="Shape" fill="#FFFFFF" fill-rule="evenodd" stroke="none" />
    <path d="M12.5 0.9375C18.8756 0.9375 24.0625 6.12437 24.0625 12.5C24.0625 18.8756 18.8756 24.0625 12.5 24.0625C6.12437 24.0625 0.9375 18.8756 0.9375 12.5C0.9375 6.12437 6.12437 0.9375 12.5 0.9375M12.5 0.625C5.94156 0.625 0.625 5.94156 0.625 12.5C0.625 19.0584 5.94156 24.375 12.5 24.375C19.0584 24.375 24.375 19.0584 24.375 12.5C24.375 5.94156 19.0584 0.625 12.5 0.625L12.5 0.625L12.5 0.625Z" id="Group" fill="#4E7AB5" fill-rule="evenodd" stroke="none" />
  </g>
</svg>