<?xml version="1.0" encoding="utf-8"?>
<svg width="25px" height="25px" viewBox="0 0 25 25" version="1.1" xmlns:xlink="http://www.w3.org/1999/xlink" xmlns="http://www.w3.org/2000/svg">
  <defs>
    <path d="M25 0L25 0L25 25L0 25L0 0L25 0Z" id="path_1" />
    <clipPath id="clip_1">
      <use xlink:href="#path_1" />
    </clipPath>
  </defs>
  <g id="Google" clip-path="url(#clip_1)">
    <g clip-path="url(#clip_1)">
      <use xlink:href="#path_1" fill="none" stroke="#808080" stroke-width="2" />
    </g>
    <path d="M22.7141 10.4599L21.875 10.4599L21.875 10.4167L12.5 10.4167L12.5 14.5833L18.387 14.5833C17.5282 17.0089 15.2204 18.75 12.5 18.75C9.04848 18.75 6.25004 15.9516 6.25004 12.5C6.25004 9.04844 9.04848 6.25 12.5 6.25C14.0933 6.25 15.5427 6.85104 16.6464 7.83281L19.5927 4.88646C17.7323 3.1526 15.2438 2.08333 12.5 2.08333C6.74744 2.08333 2.08337 6.7474 2.08337 12.5C2.08337 18.2526 6.74744 22.9167 12.5 22.9167C18.2526 22.9167 22.9167 18.2526 22.9167 12.5C22.9167 11.8016 22.8448 11.1198 22.7141 10.4599L22.7141 10.4599Z" id="Shape" fill="#FBC02D" stroke="none" />
    <path d="M3.28442 7.65156L6.70682 10.1615C7.63286 7.86875 9.87557 6.25 12.5 6.25C14.0933 6.25 15.5428 6.85104 16.6464 7.83281L19.5928 4.88646C17.7323 3.1526 15.2438 2.08333 12.5 2.08333C8.49901 2.08333 5.02922 4.34219 3.28442 7.65156L3.28442 7.65156Z" id="Shape" fill="#E53935" stroke="none" />
    <path d="M12.5 22.9167C15.1906 22.9167 17.6354 21.887 19.4839 20.2125L16.2599 17.4844C15.2141 18.2766 13.9141 18.75 12.5 18.75C9.79062 18.75 7.4901 17.0224 6.62344 14.6115L3.22656 17.2286C4.95052 20.6021 8.45156 22.9167 12.5 22.9167L12.5 22.9167Z" id="Shape" fill="#4CAF50" stroke="none" />
    <path d="M22.7141 10.4599L22.7057 10.4167L21.875 10.4167L12.5 10.4167L12.5 14.5833L18.387 14.5833C17.9745 15.7484 17.225 16.7531 16.2583 17.4849C16.2589 17.4844 16.2594 17.4844 16.2599 17.4839L19.4839 20.212C19.2557 20.4193 22.9167 17.7083 22.9167 12.5C22.9167 11.8016 22.8448 11.1198 22.7141 10.4599L22.7141 10.4599Z" id="Shape" fill="#1565C0" stroke="none" />
  </g>
</svg>